<?xml version="1.0" standalone="no"?><!DOCTYPE svg PUBLIC "-//W3C//DTD SVG 1.1//EN" "http://www.w3.org/Graphics/SVG/1.1/DTD/svg11.dtd"><svg t="1558582426404" class="icon" style="" viewBox="0 0 1024 1024" version="1.1" xmlns="http://www.w3.org/2000/svg" p-id="7580" xmlns:xlink="http://www.w3.org/1999/xlink" width="200" height="200"><defs><style type="text/css"></style></defs><path d="M771.974765 668.562821" p-id="7581"></path><path d="M586.988165 616.76424c13.573093 0.189311 18.3028-6.914459 18.611837-15.378199 0.187264-7.408715-6.721055-21.169072-18.927015-21.539508l-54.167528 0 0-13.012323c0 0 41.091761-41.963615 51.738206-51.613363 10.649516-9.711147 13.32443-17.306103 6.727195-25.150744-6.603375-8.093304-18.367268-7.532534-26.957898-0.435927-8.656121 7.284895-50.619736 46.133575-50.619736 46.133575s-36.047899-37.108041-43.832166-44.579178c-7.032139-6.719008-21.79124-13.323407-29.8211-4.231358-8.406435 9.463507-1.870598 21.289822 3.301176 26.396104 5.227032 5.167681 50.303535 52.796302 50.303535 52.796302l-0.12689 14.317034-56.344094 0c-8.405412 0-15.752728 14.817429-15.563417 22.789984 0.313131 7.845665 6.53686 14.006973 15.563417 14.006973 8.780964 0 56.094408-0.309038 56.094408-0.309038l-0.063445 39.972267-58.462331 0c-8.216101 0-15.314755 8.340944-15.626862 16.310429-0.312107 7.841572 6.22373 18.551462 15.626862 18.551462l58.400933 0c0 0-0.127913 13.632444 0.121773 19.361919 0.932229 12.764683 9.211775 17.993762 20.420014 18.116559 11.144794 0.12382 19.048788-9.147307 19.048788-17.554765 0-6.846921-0.246616-19.923712-0.246616-19.923712s48.559827-0.12382 57.71532 0c9.210751 0.064468 15.998321-9.216891 15.686214-18.551462-0.315177-9.463507-6.037488-16.811847-19.984087-16.811847l-53.107386 0 0.316201-39.470848L586.988165 616.76424z" p-id="7582"></path><path d="M513.955021 3.955067C232.235576 3.955067 3.935624 232.255018 3.935624 513.975487c0 281.654977 228.300975 510.02042 510.019397 510.02042 281.720468 0 510.018373-228.365443 510.018373-510.02042C1023.976464 232.255018 795.675489 3.955067 513.955021 3.955067zM371.322937 219.056455c12.823012-10.39676 35.861658 7.347316 50.49387 4.297873 12.888503-2.616586 16.250054-10.087722 31.690675-19.987157 12.200843-7.655331 30.753329-4.667286 37.853006 3.302199 7.158005 8.02986 20.10586 15.625839 20.10586 15.625839s4.167914-0.498349 15.066092-11.019951c10.958553-10.460205 20.857988-16.560115 39.162834-9.650772 18.369314 6.848968 20.919386 22.47583 39.53327 22.226144 18.74282-0.374529 25.401454-13.696912 41.653554-7.22145 18.676305 7.34527 11.204146 30.38187-3.426019 39.594668-17.493367 11.208239-25.341079 23.03967-34.555923 35.490199-9.337641 12.575372-24.711747 28.262609-24.711747 28.262609L438.686982 319.976656c0 0-17.869943-18.115535-27.518668-32.124555-9.654865-14.069395-22.166792-24.840683-33.620624-32.996409C366.090788 246.449256 358.621699 229.454238 371.322937 219.056455zM758.071146 668.562821c-16.186609 94.820291-100.858803 172.395878-245.17422 172.395878-149.044101 0-227.740205-93.760149-242.809367-176.438949-17.056417-92.828943 28.142883-170.342109 83.92723-218.777093 48.558803-42.085388 78.943743-87.348132 78.943743-87.348132l158.575146 0c0 0 29.13344 43.146553 83.299945 88.65489C720.903753 485.710831 777.748241 552.82519 758.071146 668.562821z" p-id="7583"></path></svg>